<?xml version="1.0" encoding="utf-8"?>
<!-- Generator: Adobe Illustrator 24.1.2, SVG Export Plug-In . SVG Version: 6.00 Build 0)  -->
<svg version="1.1" id="Layer_1" xmlns="http://www.w3.org/2000/svg" xmlns:xlink="http://www.w3.org/1999/xlink" x="0px" y="0px"
	 viewBox="0 0 1140 342" style="enable-background:new 0 0 1140 342;" xml:space="preserve">
<style type="text/css">
	.st0{fill:url(#SVGID_1_);}
	.st1{fill:#FFFFFF;}
</style>
<linearGradient id="SVGID_1_" gradientUnits="userSpaceOnUse" x1="0" y1="168.3493" x2="1140" y2="168.3493">
	<stop  offset="0" style="stop-color:#FFAFCC"/>
	<stop  offset="0.5" style="stop-color:#CDB4DB"/>
	<stop  offset="1" style="stop-color:#BDE0FE"/>
</linearGradient>
<path class="st0" d="M1140,0v280.2c-29.8,26.3-90.6,57.4-210.5,56.5c-125.2-0.9-227.5-57.6-339.6-104.9
	c-68.1-28.7-146.8-12.1-215.6,14.7c-119.6,46.6-249.9,52-374.2,22.2V0H1140z"/>
<g>
	<path class="st1" d="M226.8,107.1c-4.7,0-8.3,2.7-9.9,8.4c0,0.1-0.1,0.3-0.1,0.4v29.2c0,0.7-0.6,1.3-1.3,1.3h-11.9
		c-0.7,0-1.3-0.6-1.3-1.3V78.3c0-0.7,0.6-1.3,1.3-1.3h11.9c0.7,0,1.3,0.6,1.3,1.3v20.1c0,1.1,1.4,1.7,2.2,0.9
		c3-3.1,6.9-4.5,11.8-4.5c11.4,0,17.2,6,17.2,19.4v31c0,0.7-0.6,1.3-1.3,1.3h-11.9c-0.7,0-1.3-0.6-1.3-1.3v-30.5
		C233.5,109.8,231.6,107.1,226.8,107.1z"/>
	<path class="st1" d="M255.8,121.2c0-15.3,8.2-26.4,24.5-26.4c14.6,0,21.8,9.6,21.8,23.5c0,2-0.1,4.2-0.5,6.4
		c-0.1,0.6-0.6,1.1-1.3,1.1h-28.2c-0.8,0-1.4,0.8-1.2,1.6c1.4,5.4,5,8.9,12,8.9c4.7,0,8.5-1.3,11.7-4c0.6-0.5,1.5-0.4,1.9,0.3
		l4.1,6.2c0.3,0.5,0.3,1.1-0.1,1.6c-4.8,4.9-11.2,7.4-19.1,7.4C263.2,147.7,255.8,135.8,255.8,121.2z M286.7,115.9
		c0.7,0,1.3-0.6,1.3-1.3c-0.1-5.6-2.2-9.2-7.8-9.2c-5.4,0-8.3,3.5-9.4,9c-0.1,0.8,0.5,1.5,1.2,1.5H286.7z"/>
	<path class="st1" d="M326.1,148.1L326.1,148.1c0.3-0.8-0.3-1.7-1.2-1.7l0,0c-2.7,0-5.2-1.8-6-4.4l-13.2-44.3
		c-0.2-0.8,0.4-1.6,1.2-1.6h13c0.6,0,1.1,0.4,1.2,1l8.1,34.8c0.3,1.3,2.2,1.3,2.5,0l8.2-34.8c0.1-0.6,0.6-1,1.2-1h13
		c0.8,0,1.5,0.8,1.2,1.6l-15.1,49.5c-4.3,14.7-12.5,20.7-30.4,17.5c-0.6-0.1-1-0.6-1-1.3l0.1-9c0-0.8,0.7-1.3,1.4-1.2
		C320.7,154.7,324.3,153.1,326.1,148.1z"/>
	<path class="st1" d="M378.9,148.1L378.9,148.1c0.3-0.8-0.3-1.7-1.2-1.7h0c-2.7,0-5.2-1.8-6-4.4l-13.2-44.3
		c-0.2-0.8,0.4-1.6,1.2-1.6h13c0.6,0,1.1,0.4,1.2,1l8.1,34.8c0.3,1.3,2.2,1.3,2.5,0l8.2-34.8c0.1-0.6,0.6-1,1.2-1h13
		c0.8,0,1.5,0.8,1.2,1.6l-15.1,49.5c-4.3,14.7-12.5,20.7-30.4,17.5c-0.6-0.1-1-0.6-1-1.3l0.1-9c0-0.8,0.7-1.3,1.4-1.2
		C373.5,154.7,377.1,153.1,378.9,148.1z"/>
	<path class="st1" d="M417.5,146.8c-0.4,0-0.7,0-1.1,0c-4.4,0-7.4-2.9-7.4-8s3.4-8.5,9-8.5c5.9,0,9.3,4,9.3,11.7
		c0,9.9-5.8,17.2-16.3,20.6c-0.6,0.2-1.3-0.1-1.5-0.7l-2.1-4.5c-0.3-0.6,0-1.4,0.7-1.7C412.5,153.9,415.9,150.9,417.5,146.8z"/>
	<path class="st1" d="M464.6,75.4c5.4,0,8.7,2.9,8.7,7.4c0,4.5-3.3,7.4-8.7,7.4c-5.4,0-8.7-2.9-8.7-7.4
		C456,78.3,459.3,75.4,464.6,75.4z M458.7,96h11.9c0.7,0,1.3,0.6,1.3,1.3v47.9c0,0.7-0.6,1.3-1.3,1.3h-11.9c-0.7,0-1.3-0.6-1.3-1.3
		V97.3C457.4,96.6,458,96,458.7,96z"/>
	<path class="st1" d="M483.6,96.8l4.5-13.7c0.2-0.5,0.7-0.9,1.2-0.9h4.4c0.9,0,1.5,0.9,1.2,1.8l-6,13.7c-0.2,0.5-0.7,0.8-1.2,0.8
		h-2.9C483.9,98.4,483.3,97.6,483.6,96.8z"/>
	<path class="st1" d="M506.6,96h9.8c0.6,0,1.2,0.5,1.2,1.1l0.4,2.7c0.2,1.1,1.5,1.5,2.2,0.6c3.1-3.9,7.2-5.7,12.5-5.7
		c7,0,11.9,2.2,14.6,7c0.5,0.8,1.6,0.9,2.1,0.1c3.1-4.8,7.6-7.1,13.5-7.1c11.5,0,17.3,6.1,17.3,19.6v30.7c0,0.7-0.6,1.3-1.3,1.3h-12
		c-0.7,0-1.3-0.6-1.3-1.3v-30.3c0-4.9-1.9-7.7-6.4-7.7c-4.5,0-7.9,2.9-9.3,8.1c0,0.1,0,0.2,0,0.4v29.5c0,0.7-0.6,1.3-1.3,1.3h-12
		c-0.7,0-1.3-0.6-1.3-1.3v-30.3c0-4.9-1.9-7.7-6.4-7.7c-4.6,0-7.9,2.9-9.4,8.3c0,0.1,0,0.2,0,0.4v29.4c0,0.7-0.6,1.3-1.3,1.3h-11.9
		c-0.7,0-1.3-0.6-1.3-1.3V97.3C505.3,96.6,505.9,96,506.6,96z"/>
	<path class="st1" d="M609,139.5l4.9-7.8c0.4-0.6,1.2-0.8,1.8-0.3c4.8,3.5,9.9,5.3,15,5.3c4.1,0,6.3-1.5,6.3-4
		c0-3.1-2.6-3.9-6.8-4.9l-4-0.9c-8.3-2-16.1-5.6-16.1-16.2c0-9.9,7.8-15.9,19.6-15.9c8.1,0,15.3,2.3,20.3,6.7
		c0.5,0.4,0.5,1.1,0.2,1.7l-5.2,7.3c-0.4,0.6-1.3,0.7-1.8,0.2c-3.8-3.2-8.3-5-13.4-5c-4.2,0-6.2,1.7-6.2,4c0,3.2,2.5,4.2,6.8,5.1
		l3.9,0.9c9.9,2.3,16.2,5.8,16.2,15.8c0,10.2-7.5,16.2-19.6,16.2c-8.7,0-15.5-2-21.7-6.4C608.8,140.8,608.6,140.1,609,139.5z"/>
	<path class="st1" d="M689.8,142.6c-0.4-0.7-1.5-0.8-2-0.2c-3,3.7-7.7,5.2-13.4,5.2c-10.7,0-17.2-6-17.2-15.2c0-9.5,6.5-15,19.4-15
		c3.8,0,7,0.5,9.8,1.6c0.8,0.3,1.7-0.3,1.7-1.2v-3.5c0-5.9-2.2-8.6-7.5-8.6c-4.7,0-6.9,1.7-7.7,6.1c-0.1,0.6-0.7,1.1-1.4,1
		l-11.2-1.3c-0.7-0.1-1.2-0.8-1.1-1.5c1.9-10.5,9.3-15.3,21.6-15.3c13.8,0,20.8,6.3,20.8,18.8v17.8c0,3.6,1.4,4.6,4.4,4.5
		c0.7,0,1.3,0.5,1.3,1.2l0.1,7.9c0,0.6-0.4,1.1-0.9,1.2c-1.9,0.6-3.9,1-6.5,1C695.1,147.2,691.6,145.7,689.8,142.6z M678.9,137.9
		c3.5,0,6.3-0.9,8.8-3.1c0.3-0.2,0.4-0.6,0.4-0.9v-4.4c0-0.5-0.3-0.9-0.7-1.1c-2.4-1.2-4.8-1.7-8-1.7c-5.3,0-7.7,1.9-7.7,5.6
		S674.2,137.9,678.9,137.9z"/>
	<path class="st1" d="M710.2,96l11.1,0c0.6,0,1.1,0.4,1.2,1l4.7,25.4c0.8,4.2,1.4,8.5,2.1,12.7h0.1c0.6-4.2,1.4-8.6,2.2-12.8
		l5.3-25.5c0.1-0.6,0.6-1,1.2-1h14c0.6,0,1.1,0.4,1.2,1l5.3,25.5c0.9,4.2,1.6,8.6,2.3,12.8h0.1c0.7-4.3,1.4-8.6,2.1-12.7l4.7-25.4
		c0.1-0.6,0.6-1,1.2-1l11.2,0c0.8,0,1.4,0.7,1.2,1.5l-10.6,47.9c-0.1,0.6-0.6,1-1.2,1h-16c-0.6,0-1.1-0.4-1.2-1l-5.3-23.6
		c-0.7-3.4-1.4-6.8-1.9-10.2h-0.1c-0.6,3.4-1.2,6.9-1.9,10.2l-5.3,23.6c-0.1,0.6-0.6,1-1.2,1h-16c-0.6,0-1.1-0.4-1.2-1L709,97.5
		C708.8,96.8,709.4,96,710.2,96z"/>
	<path class="st1" d="M786.6,139.5l4.9-7.8c0.4-0.6,1.2-0.8,1.8-0.3c4.8,3.5,9.9,5.3,15,5.3c4.1,0,6.3-1.5,6.3-4
		c0-3.1-2.6-3.9-6.8-4.9l-4-0.9c-8.3-2-16.1-5.6-16.1-16.2c0-9.9,7.8-15.9,19.6-15.9c8.1,0,15.3,2.3,20.3,6.7
		c0.5,0.4,0.5,1.1,0.2,1.7l-5.2,7.3c-0.4,0.6-1.3,0.7-1.8,0.2c-3.8-3.2-8.3-5-13.4-5c-4.2,0-6.2,1.7-6.2,4c0,3.2,2.5,4.2,6.8,5.1
		l3.9,0.9c9.9,2.3,16.2,5.8,16.2,15.8c0,10.2-7.5,16.2-19.6,16.2c-8.7,0-15.5-2-21.7-6.4C786.4,140.8,786.3,140.1,786.6,139.5z"/>
	<path class="st1" d="M867.4,142.6c-0.4-0.7-1.5-0.8-2-0.2c-3,3.7-7.7,5.2-13.4,5.2c-10.7,0-17.2-6-17.2-15.2c0-9.5,6.5-15,19.4-15
		c3.8,0,7,0.5,9.8,1.6c0.8,0.3,1.7-0.3,1.7-1.2v-3.5c0-5.9-2.2-8.6-7.5-8.6c-4.7,0-6.9,1.7-7.7,6.1c-0.1,0.6-0.7,1.1-1.4,1
		l-11.2-1.3c-0.7-0.1-1.2-0.8-1.1-1.5c1.9-10.5,9.3-15.3,21.6-15.3c13.8,0,20.8,6.3,20.8,18.8v17.8c0,3.6,1.4,4.6,4.4,4.5
		c0.7,0,1.3,0.5,1.3,1.2l0.1,7.9c0,0.6-0.4,1.1-0.9,1.2c-1.9,0.6-3.9,1-6.5,1C872.7,147.2,869.3,145.7,867.4,142.6z M856.5,137.9
		c3.5,0,6.3-0.9,8.8-3.1c0.3-0.2,0.4-0.6,0.4-0.9v-4.4c0-0.5-0.3-0.9-0.7-1.1c-2.4-1.2-4.8-1.7-8-1.7c-5.3,0-7.7,1.9-7.7,5.6
		S851.8,137.9,856.5,137.9z"/>
	<path class="st1" d="M916.4,107.1c-4.8,0-8.4,3-9.9,8.4c0,0.1,0,0.2,0,0.4v29.3c0,0.7-0.6,1.3-1.3,1.3h-11.9
		c-0.7,0-1.3-0.6-1.3-1.3V97.3c0-0.7,0.6-1.3,1.3-1.3h9.8c0.6,0,1.2,0.5,1.2,1.1l0.4,2.8c0.2,1.1,1.5,1.5,2.2,0.6
		c3.1-4,7.4-5.8,13-5.8c11.8,0,17.7,6.1,17.7,19.6v30.7c0,0.7-0.6,1.3-1.3,1.3h-11.9c-0.7,0-1.3-0.6-1.3-1.3v-30.3
		C923.2,109.9,921.2,107.1,916.4,107.1z"/>
</g>
</svg>
